<?xml version="1.0" encoding="UTF-8"?><svg version="1.1" width="60px" height="60px" viewBox="0 0 60.0 60.0" xmlns="http://www.w3.org/2000/svg" xmlns:xlink="http://www.w3.org/1999/xlink"><defs><clipPath id="i0"><path d="M60,0 L60,60 L0,60 L0,0 L60,0 Z"></path></clipPath><clipPath id="i1"><path d="M4.9726032,2.333121 L4.972,7.964 L9.93534435,7.96352567 C10.221562,7.95148914 10.5100722,7.95126629 10.8003046,7.96327022 L12.0817873,7.96418421 C12.9540087,7.96418421 13.6354317,8.42155375 14.1260562,9.33629283 C14.2350839,9.72832386 14.2895978,10.1203549 14.2895978,10.5123859 C14.2895978,11.296448 14.0715424,11.949833 13.6354317,12.4725411 C13.199321,12.9952491 12.6814395,13.2239339 12.0817873,13.1585954 L4.972,13.158 L4.97574208,18.1187093 C4.97675227,18.1376498 4.97706765,18.1563992 4.97653792,18.1749233 C4.89989736,20.8549475 6.81552559,23.2274675 9.54371771,23.6595706 C12.4788018,24.1244423 15.2358256,22.1527611 15.7451041,19.244113 L15.7598466,19.1556869 L15.7588733,19.1343931 C15.7444109,18.9410493 15.7516421,18.7037611 15.7561616,18.4863706 L15.7588733,18.2779771 C15.7588733,17.2473064 15.9099357,16.2518261 16.1911823,15.3123602 L16.297439,14.9725657 C17.2274619,12.1505448 19.3040619,9.92832941 21.9035139,8.76032885 C21.9017839,8.7566524 21.8992185,8.75190077 21.8966417,8.74711113 L21.9104798,8.757202 C23.6791267,7.96406973 25.6893879,7.65880632 27.7450163,7.98438587 C28.114019,8.04283015 28.4753497,8.12015561 28.8281844,8.21522492 C30.4619715,8.46255455 32.8566071,8.11683086 34.0875011,7.00594029 L34.1525195,6.94629183 C35.1320997,6.03281851 36.6704231,6.09037674 37.5884608,7.07485172 C38.5064986,8.05932671 38.4566086,9.5979178 37.4770284,10.5113911 C36.6255258,11.3054302 35.6735026,11.924776 34.6648587,12.3710712 C34.8246317,12.603056 34.974221,12.842493 35.1139701,13.0878408 C36.002123,14.6137621 36.5108266,16.3866176 36.5108266,18.2779771 C36.5108266,23.9935145 31.8653437,28.6268731 26.13485,28.6268731 C22.9890651,28.6268731 20.1606164,27.2555962 18.249595,25.0717456 C15.9823673,27.6878527 12.4508156,29.1094842 8.77280151,28.526944 C3.68944919,27.72182 0.0551900434,23.3621982 0.0152314863,18.3926044 L0.0148477617,18.3439386 C0.0179241326,18.0314294 0.0358696298,16.208459 0.0686842532,12.8750276 L0.0686842532,8.29534686 L0.0143703938,2.333121 C-0.190585122,0.141401273 1.85545484,0.0085697741 2.4147245,0.000519380249 L2.50340122,0 C3.25254491,0 4.9726032,0.172995619 4.9726032,2.333121 Z M26.13485,12.8571267 C23.2063747,12.8571267 20.8188526,15.1671778 20.7041302,18.0599533 L20.7,18.217 L20.7023018,18.4064225 C20.7781513,20.9353592 22.61562,23.1364346 25.183203,23.5859956 L25.2716291,23.6007382 C25.3767281,23.6173842 25.4792132,23.6404633 25.5787485,23.6695119 C25.7614366,23.6893253 25.9470307,23.6988274 26.13485,23.6988274 C28.7416905,23.6988274 30.9198785,21.8683373 31.4478163,19.4257662 C31.4472632,19.3314237 31.4543903,19.23641 31.4671625,19.140907 L31.4759666,19.0806249 C31.6477595,17.995967 31.4868008,16.9356263 31.0687715,16.0040556 L30.9912993,15.8415421 C30.0968006,14.0713473 28.2579945,12.8571267 26.13485,12.8571267 Z"></path></clipPath></defs><rect x="0px" y="0px" width="60px" height="60px" fill="#109C90"></rect><g clip-path="url(#i0)"><g transform="translate(3.8888888888888893 3.8888888888888893)"><g transform="translate(7.318793402777779 12.060546875)"><g clip-path="url(#i1)"><polygon points="-1.73472348e-18,0 38.2456367,0 38.2456367,28.6565383 -1.73472348e-18,28.6565383 -1.73472348e-18,0" stroke="none" fill="#FFFFFF"></polygon></g></g></g></g></svg>