<svg xmlns="http://www.w3.org/2000/svg" xmlns:xlink="http://www.w3.org/1999/xlink" width="285px" height="100px" viewBox="0 0 285 100"><title>Group</title><g id="Symbols" stroke="none" stroke-width="1" fill="none" fill-rule="evenodd"><g id="logo/landscape" transform="translate(-39, -48)"><g id="Group" transform="translate(39, 48)"><polygon id="Path" fill="#CF2508" fill-rule="nonzero" points="57.8947368 -4.11366847e-13 0 0 0 14.7921258 19.011418 14.7921258 19.011418 57.8947368 37.6122222 57.8947368 37.6122222 14.7921258 57.8947368 14.7921258"></polygon><polygon id="Rectangle" fill="#CF2508" points="19.0789474 63.8157895 37.5 63.8157895 28.2894737 78.9473684"></polygon><path d="M112.132381,17.750551 C112.132381,15.394768 111.721794,13.1485563 110.900619,11.0119159 C110.079444,8.87527548 108.847682,6.99201873 107.205332,5.36214561 C105.562982,3.73227248 103.523731,2.43111327 101.087579,1.45866796 C98.6514272,0.486222654 95.8320602,0 92.6294783,0 L57.2368421,0 L57.2368421,57.8947368 L75.7953938,57.8947368 L75.7953938,36.7748683 L82.6932625,36.7748683 L92.9579482,57.8947368 L113.815789,57.8947368 L100.964403,33.6520862 C102.825733,32.9672656 104.454396,32.0701505 105.850393,30.9607411 C107.246391,29.8513317 108.409722,28.5981099 109.340387,27.2010758 C110.271051,25.8040417 110.96905,24.3042845 111.434382,22.7018042 C111.899715,21.0993239 112.132381,19.4489062 112.132381,17.750551 Z M93.2043007,18.5312465 C93.2043007,19.2982456 93.0674382,20.0104591 92.7937132,20.6678869 C92.5199883,21.3253147 92.1436165,21.8937158 91.6645978,22.3730903 C91.1855792,22.8524647 90.6312861,23.2291161 90.0017187,23.5030443 C89.3721514,23.7769726 88.7015252,23.9139367 87.9898403,23.9139367 L75.7953938,23.9139367 L75.7953938,13.2307348 L87.9898403,13.2307348 C88.7015252,13.2307348 89.3721514,13.3608507 90.0017187,13.6210825 C90.6312861,13.8813144 91.1855792,14.2442693 91.6645978,14.7099473 C92.1436165,15.1756254 92.5199883,15.7371783 92.7937132,16.3946061 C93.0674382,17.0520339 93.2043007,17.7642474 93.2043007,18.5312465 Z" id="Shape" fill="#CF2508" fill-rule="nonzero"></path><path d="M169.736842,0 L151.071777,0 L151.071777,34.5188285 C151.071777,36.0878661 150.858423,37.5261506 150.431714,38.833682 C150.005005,40.1412134 149.35806,41.2698194 148.490878,42.2195001 C147.623695,43.1691808 146.543159,43.9124092 145.249268,44.4491852 C143.955377,44.9859612 142.455014,45.2543493 140.748179,45.2543493 C139.041344,45.2543493 137.547864,44.9859612 136.267738,44.4491852 C134.987612,43.9124092 133.92084,43.1691808 133.067422,42.2195001 C132.214005,41.2698194 131.573942,40.1412134 131.147233,38.833682 C130.720525,37.5261506 130.50717,36.0878661 130.50717,34.5188285 L130.50717,0 L111.842105,0 L111.842105,34.7665712 C111.842105,38.7855098 112.495933,42.3158445 113.803589,45.3575754 C115.111245,48.3993063 117.003904,50.9455516 119.481568,52.9963114 C121.959231,55.0470711 124.994369,56.5954636 128.586981,57.6414887 C132.179593,58.6875138 136.260855,59.2105263 140.830768,59.2105263 C145.400681,59.2105263 149.475061,58.6875138 153.053908,57.6414887 C156.632755,56.5954636 159.661011,55.0470711 162.138674,52.9963114 C164.616338,50.9455516 166.502115,48.3993063 167.796006,45.3575754 C169.089897,42.3158445 169.736842,38.7855098 169.736842,34.7665712 L169.736842,0 Z" id="Path" fill="#CF2508" fill-rule="nonzero"></path><polygon id="Path" fill="#CF2508" fill-rule="nonzero" points="226.973684 -2.05683424e-13 168.421053 0 168.421053 14.7921258 188.678877 14.7921258 188.678877 57.8947368 207.257755 57.8947368 207.257755 14.7921258 226.973684 14.7921258"></polygon><polygon id="Path" fill="#CF2508" fill-rule="nonzero" points="284.210526 0 265.545461 0 265.545461 21.1198685 244.980854 21.1198685 244.980854 0 226.315789 0 226.315789 57.8947368 244.980854 57.8947368 244.980854 35.9119943 265.545461 35.9119943 265.545461 57.8947368 284.210526 57.8947368"></polygon><g id="VOICE" transform="translate(188.8158, 78.9474)" fill="#003D6E" fill-rule="nonzero"><g id="Group-2"><path d="M10.1385695,21.0503646 C10.2861252,21.0503646 10.3451475,20.9035699 10.4927032,20.6393394 L20.1428479,0.469743143 C20.2313813,0.234871572 20.172359,0 19.8477364,0 L18.13609,0 C17.8704897,0 17.7229339,0.0880768394 17.5458671,0.469743143 L10.1090583,16.5878048 L10.0795472,16.5878048 L2.64273841,0.469743143 C2.46567153,0.0880768394 2.34762695,0 2.02300435,0 L0.311357886,0 C0.0457575737,0 -0.0722870098,0.205512625 0.0457575737,0.469743143 L9.66639112,20.6393394 C9.843458,20.9329288 9.87296914,21.0503646 10.050036,21.0503646 L10.1385695,21.0503646 Z" id="Path"></path><path d="M33.5148881,21.0526316 C39.2892896,21.0526316 44.0084706,16.2969407 44.0084706,10.5263158 C44.0084706,4.75569088 39.2892896,0 33.5148881,0 C27.7404865,0 23.0213056,4.75569088 23.0213056,10.5263158 C23.0213056,16.2969407 27.7404865,21.0526316 33.5148881,21.0526316 Z M33.5148881,19.0227635 C28.9422655,19.0227635 25.3662402,14.8760331 25.3662402,10.5263158 C25.3662402,6.14760041 28.9422655,2.02986806 33.5148881,2.02986806 C38.146134,2.02986806 41.6635359,6.14760041 41.6635359,10.5263158 C41.6635359,14.8760331 38.146134,19.0227635 33.5148881,19.0227635 Z" id="Shape"></path><path d="M52.0735091,21.0503646 C52.4536077,21.0503646 52.5486323,20.9300768 52.5486323,20.5692134 L52.5486323,0.481151191 C52.5486323,0.120287798 52.4536077,0 52.0735091,0 L50.5531146,0 C50.173016,0 50.0463165,0.120287798 50.0463165,0.481151191 L50.0463165,20.5692134 C50.0463165,20.9300768 50.173016,21.0503646 50.5531146,21.0503646 L52.0735091,21.0503646 Z" id="Path"></path><path d="M75.7287343,16.4419313 C75.6124937,16.3259388 75.5253133,16.2679426 75.4090727,16.2679426 C75.3218923,16.2679426 75.2056517,16.2969407 75.0894111,16.4129332 C73.7235845,17.8338408 71.6603144,19.0227635 68.9577212,19.0227635 C64.424339,19.0227635 60.8790017,14.9050312 60.8790017,10.5263158 C60.8790017,6.14760041 64.424339,2.02986806 68.9577212,2.02986806 C71.6603144,2.02986806 73.7526446,3.21879078 75.0312909,4.58170219 C75.1475314,4.69769465 75.263772,4.75569088 75.3509524,4.75569088 C75.467193,4.75569088 75.5834336,4.69769465 75.6996741,4.55270407 L76.5424183,3.62476439 C76.7748994,3.36378135 76.8039595,3.21879078 76.5714784,2.98680586 C74.7116293,1.13092649 71.776555,0 68.9577212,0 C63.2328732,0 58.5541903,4.75569088 58.5541903,10.5263158 C58.5541903,16.2969407 63.2328732,21.0526316 68.9577212,21.0526316 C71.776555,21.0526316 74.7116293,19.9217051 76.5714784,18.0658257 C76.8330197,17.8048427 76.8330197,17.6598521 76.6005385,17.369871 L75.7287343,16.4419313 Z" id="Path"></path><path d="M82.0759591,20.5692134 C82.0759591,20.9300768 82.1878816,21.0503646 82.5236491,21.0503646 L94.9750275,21.0503646 C95.310795,21.0503646 95.3947368,20.9300768 95.3947368,20.5692134 L95.3947368,19.4565513 C95.3947368,19.0956879 95.310795,18.9754001 94.9750275,18.9754001 L84.2864285,18.9754001 L84.2864285,11.4574127 L94.4713762,11.4574127 C94.8071437,11.4574127 94.9190662,11.3371249 94.9190662,10.9762616 L94.9190662,9.86359942 C94.9190662,9.50273603 94.8071437,9.38244823 94.4713762,9.38244823 L84.2864285,9.38244823 L84.2864285,2.07496451 L94.9750275,2.07496451 C95.2828143,2.07496451 95.3947368,1.95467671 95.3947368,1.59381332 L95.3947368,0.481151191 C95.3947368,0.120287798 95.2828143,0 94.9750275,0 L82.5236491,0 C82.1878816,0 82.0759591,0.120287798 82.0759591,0.481151191 L82.0759591,20.5692134 Z" id="Path"></path></g></g></g></g></g></svg>