<?xml version="1.0" encoding="UTF-8"?>
<svg width="102px" height="49px" viewBox="0 0 102 49" version="1.1" xmlns="http://www.w3.org/2000/svg" xmlns:xlink="http://www.w3.org/1999/xlink">
    <title>web/logo_fluor</title>
    <g id="Export" stroke="none" stroke-width="1" fill="none" fill-rule="evenodd">
        <g id="Export-Webplayer" transform="translate(-194, -271)">
            <g id="web/logo_fluor" transform="translate(194, 218.8387)">
                <g id="Group" transform="translate(7.7695, 61.6452)">
                    <polygon id="Path" fill="#FE4424" fill-rule="nonzero" points="17.53125 -1.23542753e-13 0 0 0 4.4424094 5.75689502 4.4424094 5.75689502 17.3870968 11.389451 17.3870968 11.389451 4.4424094 17.53125 4.4424094"></polygon>
                    <polygon id="Rectangle" fill="#FE4424" points="5.77734375 19.1653226 11.3554688 19.1653226 8.56640625 23.7096774"></polygon>
                    <path d="M33.9550866,5.33089127 C33.9550866,4.62339645 33.8307556,3.94880835 33.5820936,3.30712699 C33.3334316,2.66544564 32.9604386,2.09986111 32.4631146,1.61037341 C31.9657905,1.1208857 31.3482799,0.730118211 30.6105826,0.438070927 C29.8728853,0.146023642 29.0191457,0 28.0493639,0 L17.3320312,0 L17.3320312,17.3870968 L22.9517927,17.3870968 L22.9517927,11.0443234 L25.0405536,11.0443234 L28.1488287,17.3870968 L34.4648437,17.3870968 L30.5732833,10.1064814 C31.1369172,9.90081427 31.6300968,9.63139037 32.0528223,9.29820967 C32.4755477,8.96502896 32.8278188,8.58865817 33.1096358,8.16909728 C33.3914527,7.74953639 33.6028154,7.29912544 33.7437239,6.81786442 C33.8846324,6.3366034 33.9550866,5.84094569 33.9550866,5.33089127 Z M28.2234273,5.56535177 C28.2234273,5.79569892 28.1819836,6.00959271 28.0990963,6.20703313 C28.016209,6.40447355 27.9022389,6.57517724 27.757186,6.71914421 C27.6121332,6.86311118 27.4442863,6.97622809 27.2536455,7.05849493 C27.0630046,7.14076177 26.8599306,7.18189519 26.6444235,7.18189519 L22.9517927,7.18189519 L22.9517927,3.9734884 L26.6444235,3.9734884 C26.8599306,3.9734884 27.0630046,4.01256515 27.2536455,4.09071865 C27.4442863,4.16887215 27.6121332,4.27787571 27.757186,4.41772934 C27.9022389,4.55758297 28.016209,4.72623 28.0990963,4.92367041 C28.1819836,5.12111083 28.2234273,5.33500462 28.2234273,5.56535177 Z" id="Shape" fill="#FE4424" fill-rule="nonzero"></path>
                    <path d="M51.3984375,0 L45.7464225,0 L45.7464225,10.3667836 C45.7464225,10.8380011 45.6818162,11.2699504 45.5526034,11.6626316 C45.4233907,12.0553128 45.2274875,12.3942587 44.9648939,12.6794692 C44.7023003,12.9646798 44.3751003,13.187888 43.983294,13.349094 C43.5914876,13.5103 43.137159,13.590903 42.620308,13.590903 C42.1034571,13.590903 41.6512126,13.5103 41.2635744,13.349094 C40.8759362,13.187888 40.5529043,12.9646798 40.2944789,12.6794692 C40.0360534,12.3942587 39.8422343,12.0553128 39.7130216,11.6626316 C39.5838088,11.2699504 39.5192025,10.8380011 39.5192025,10.3667836 L39.5192025,0 L33.8671875,0 L33.8671875,10.4411864 C33.8671875,11.6481644 34.0651748,12.7084036 34.4611493,13.6219041 C34.8571238,14.5354046 35.4302447,15.3000995 36.1805122,15.915989 C36.9307797,16.5318785 37.8498573,16.9968957 38.9377452,17.3110406 C40.025633,17.6251856 41.2614903,17.7822581 42.645317,17.7822581 C44.0291436,17.7822581 45.2629168,17.6251856 46.3466365,17.3110406 C47.4303562,16.9968957 48.3473498,16.5318785 49.0976172,15.915989 C49.8478847,15.3000995 50.4189216,14.5354046 50.810728,13.6219041 C51.2025343,12.7084036 51.3984375,11.6481644 51.3984375,10.4411864 L51.3984375,0 Z" id="Path" fill="#FE4424" fill-rule="nonzero"></path>
                    <polygon id="Path" fill="#FE4424" fill-rule="nonzero" points="68.7304688 -6.17713765e-14 51 0 51 4.4424094 57.1343224 4.4424094 57.1343224 17.3870968 62.760239 17.3870968 62.760239 4.4424094 68.7304688 4.4424094"></polygon>
                    <polygon id="Path" fill="#FE4424" fill-rule="nonzero" points="86.0625 0 80.410485 0 80.410485 6.34277342 74.183265 6.34277342 74.183265 0 68.53125 0 68.53125 17.3870968 74.183265 17.3870968 74.183265 10.7851828 80.410485 10.7851828 80.410485 17.3870968 86.0625 17.3870968"></polygon>
                    <g id="VOICE" transform="translate(57.1758, 23.7097)" fill="#003D6E" fill-rule="nonzero">
                        <g id="Group-2">
                            <path d="M3.07008556,6.32189983 C3.11476728,6.32189983 3.13263997,6.27781405 3.17732169,6.19845966 L6.09950613,0.141074473 C6.12631516,0.0705372365 6.10844247,0 6.01014269,0 L5.49183475,0 C5.41140765,0 5.36672593,0.0264514637 5.31310787,0.141074473 L3.06114922,4.98169233 L3.05221288,4.98169233 L0.800254224,0.141074473 C0.746636161,0.0264514637 0.710890786,0 0.612591003,0 L0.09428306,0 C0.0138559653,0 -0.0218894101,0.061720082 0.0138559653,0.141074473 L2.92710406,6.19845966 C2.98072212,6.28663121 2.98965847,6.32189983 3.04327653,6.32189983 L3.07008556,6.32189983 Z" id="Path"></path>
                            <path d="M10.148727,6.32258065 C11.897288,6.32258065 13.326315,4.89433929 13.326315,3.16129032 C13.326315,1.42824136 11.897288,0 10.148727,0 C8.40016608,0 6.9711391,1.42824136 6.9711391,3.16129032 C6.9711391,4.89433929 8.40016608,6.32258065 10.148727,6.32258065 Z M10.148727,5.71296543 C8.76407979,5.71296543 7.68121462,4.46760864 7.68121462,3.16129032 C7.68121462,1.84626322 8.76407979,0.609615214 10.148727,0.609615214 C11.5511262,0.609615214 12.6162395,1.84626322 12.6162395,3.16129032 C12.6162395,4.46760864 11.5511262,5.71296543 10.148727,5.71296543 Z" id="Shape"></path>
                            <path d="M15.7685095,6.32189983 C15.8836081,6.32189983 15.9123827,6.28577468 15.9123827,6.17739926 L15.9123827,0.144500567 C15.9123827,0.0361251419 15.8836081,0 15.7685095,0 L15.308115,0 C15.1930164,0 15.1546502,0.0361251419 15.1546502,0.144500567 L15.1546502,6.17739926 C15.1546502,6.28577468 15.1930164,6.32189983 15.308115,6.32189983 L15.7685095,6.32189983 Z" id="Path"></path>
                            <path d="M22.9316073,4.93788323 C22.8964083,4.90304808 22.8700089,4.8856305 22.8348098,4.8856305 C22.8084105,4.8856305 22.7732114,4.89433929 22.7380123,4.92917444 C22.3244229,5.35590509 21.6996389,5.71296543 20.8812599,5.71296543 C19.5084952,5.71296543 18.4349227,4.47631743 18.4349227,3.16129032 C18.4349227,1.84626322 19.5084952,0.609615214 20.8812599,0.609615214 C21.6996389,0.609615214 22.3332227,0.966675553 22.7204128,1.37598863 C22.7556119,1.41082378 22.790811,1.42824136 22.8172103,1.42824136 C22.8524094,1.42824136 22.8876085,1.41082378 22.9228076,1.36727984 L23.178001,1.0885986 C23.2483992,1.0102195 23.257199,0.966675553 23.1868008,0.897005243 C22.6236152,0.339642762 21.734838,0 20.8812599,0 C19.1477044,0 17.7309408,1.42824136 17.7309408,3.16129032 C17.7309408,4.89433929 19.1477044,6.32258065 20.8812599,6.32258065 C21.734838,6.32258065 22.6236152,5.98293788 23.1868008,5.4255754 C23.2659988,5.3471963 23.2659988,5.30365236 23.1956006,5.21656447 L22.9316073,4.93788323 Z" id="Path"></path>
                            <path d="M24.8536264,6.17739926 C24.8536264,6.28577468 24.8875179,6.32189983 24.9891925,6.32189983 L28.7596255,6.32189983 C28.8613001,6.32189983 28.8867187,6.28577468 28.8867187,6.17739926 L28.8867187,5.8432417 C28.8867187,5.73486627 28.8613001,5.69874113 28.7596255,5.69874113 L25.5229841,5.69874113 L25.5229841,3.44091976 L28.6071136,3.44091976 C28.7087882,3.44091976 28.7426797,3.40479462 28.7426797,3.29641919 L28.7426797,2.96226163 C28.7426797,2.85388621 28.7087882,2.81776106 28.6071136,2.81776106 L25.5229841,2.81776106 L25.5229841,0.623158697 L28.7596255,0.623158697 C28.8528272,0.623158697 28.8867187,0.587033555 28.8867187,0.47865813 L28.8867187,0.144500567 C28.8867187,0.0361251419 28.8528272,0 28.7596255,0 L24.9891925,0 C24.8875179,0 24.8536264,0.0361251419 24.8536264,0.144500567 L24.8536264,6.17739926 Z" id="Path"></path>
                        </g>
                    </g>
                </g>
            </g>
        </g>
    </g>
</svg>