<?xml version="1.0" encoding="UTF-8"?>
<svg width="26px" height="26px" viewBox="0 0 26 26" version="1.1" xmlns="http://www.w3.org/2000/svg" xmlns:xlink="http://www.w3.org/1999/xlink">
    <title>web/ic_10more</title>
    <g id="Export" stroke="none" stroke-width="1" fill="none" fill-rule="evenodd">
        <g id="Export-Webplayer" transform="translate(-301, -129)" fill="#CF2508">
            <g id="web/ic_10more" transform="translate(302.7333, 130.7333)">
                <path d="M11.2666667,-2.84217094e-14 C5.05442687,-2.84217094e-14 0,5.05442687 0,11.2666667 C0,17.4789065 5.05442687,22.5333333 11.2666667,22.5333333 C17.4789065,22.5333333 22.5333333,17.4789065 22.5333333,11.2666667 L20.8,11.2666667 C20.8,16.5411463 16.5411463,20.8 11.2666667,20.8 C5.99218793,20.8 1.73333333,16.5411463 1.73333333,11.2666667 C1.73333333,5.99218793 5.99218793,1.73333333 11.2666667,1.73333333 C14.625,1.73333333 17.5601565,3.453125 19.25625,6.06666667 L14.7333333,6.06666667 L14.7333333,7.8 L21.6666667,7.8 L21.6666667,0.866666667 L19.9333333,0.866666667 L19.9333333,4.08958333 C17.8682296,1.59791667 14.7502602,-2.84217094e-14 11.2666667,-2.84217094e-14 Z" id="Path"></path>
                <path d="M6.16315104,16.2432292 C6.54401042,16.2432292 6.80807292,15.9791667 6.80807292,15.5830729 L6.80807292,9.44361979 C6.80807292,8.99166667 6.52877604,8.71236979 6.06666667,8.71236979 C5.79244792,8.71236979 5.58932292,8.75807292 5.26432292,8.98658854 L3.76627604,10.0377604 C3.54791667,10.1901042 3.46666667,10.3424479 3.46666667,10.5455729 C3.46666667,10.835026 3.66471354,11.0330729 3.93893229,11.0330729 C4.08111979,11.0330729 4.18268229,10.997526 4.30963542,10.9061198 L5.49283854,10.0834635 L5.51822917,10.0834635 L5.51822917,15.5830729 C5.51822917,15.9791667 5.78229167,16.2432292 6.16315104,16.2432292 Z M10.440625,16.2889323 C12.2433594,16.2889323 13.3148437,14.8111979 13.3148437,12.4651042 C13.3148437,10.1190104 12.2332031,8.66666667 10.440625,8.66666667 C8.64296875,8.66666667 7.55625,10.1291667 7.55625,12.4701823 C7.55625,14.8213542 8.6328125,16.2889323 10.440625,16.2889323 Z M10.440625,15.2174479 C9.4453125,15.2174479 8.8765625,14.2018229 8.8765625,12.4651042 C8.8765625,10.7588542 9.45546875,9.73815104 10.440625,9.73815104 C11.4207031,9.73815104 11.9945312,10.753776 11.9945312,12.4701823 C11.9945312,14.206901 11.4308594,15.2174479 10.440625,15.2174479 Z M16.3464844,16.2483073 C17.7175781,16.2483073 18.6417969,15.5729167 18.6417969,14.5420573 C18.6417969,13.7447917 18.1898437,13.3334635 17.0523437,13.0744792 L16.1941406,12.8865885 C15.6355469,12.7596354 15.4019531,12.5463542 15.4019531,12.2315104 C15.4019531,11.8455729 15.7828125,11.5764323 16.3363281,11.5764323 C16.8695312,11.5764323 17.1792969,11.810026 17.428125,12.1807292 C17.5449219,12.3483073 17.7277344,12.4143229 17.9105469,12.4143229 C18.2304687,12.4143229 18.3980469,12.2264323 18.3980469,11.9623698 C18.3980469,11.9014323 18.3878906,11.8404948 18.3726562,11.7744792 C18.2050781,11.1549479 17.4027344,10.6471354 16.3667969,10.6471354 C15.0363281,10.6471354 14.1730469,11.3022135 14.1730469,12.3026042 C14.1730469,13.0846354 14.6910156,13.6026042 15.7421875,13.841276 L16.615625,14.0393229 C17.1691406,14.166276 17.3722656,14.3440104 17.3722656,14.6690104 C17.3722656,15.0752604 16.98125,15.3240885 16.3921875,15.3240885 C15.7878906,15.3240885 15.4628906,15.141276 15.1785156,14.7299479 C15.0160156,14.5166667 14.8382812,14.4201823 14.6300781,14.4201823 C14.3253906,14.4201823 14.1019531,14.613151 14.1019531,14.9178385 C14.1019531,14.9940104 14.1171875,15.0752604 14.1527344,15.1666667 C14.4117187,15.8115885 15.2089844,16.2483073 16.3464844,16.2483073 Z" id="Combined-Shape"></path>
            </g>
        </g>
    </g>
</svg>