<?xml version="1.0" encoding="UTF-8"?>
<svg width="26px" height="26px" viewBox="0 0 26 26" version="1.1" xmlns="http://www.w3.org/2000/svg" xmlns:xlink="http://www.w3.org/1999/xlink">
    <title>web/ic_moreOptions</title>
    <g id="Export" stroke="none" stroke-width="1" fill="none" fill-rule="evenodd">
        <g id="Export-Webplayer" transform="translate(-339, -129)" fill="#CF2508">
            <g id="web/ic_moreOptions" transform="translate(341.6, 139.4)">
                <path d="M2.16666667,0 C0.96907525,0 0,0.96907525 0,2.16666667 C0,3.36425808 0.96907525,4.33333333 2.16666667,4.33333333 C3.36425808,4.33333333 4.33333333,3.36425808 4.33333333,2.16666667 C4.33333333,0.96907525 3.36425808,0 2.16666667,0 Z M10.8333333,0 C9.63574192,0 8.66666667,0.96907525 8.66666667,2.16666667 C8.66666667,3.36425808 9.63574192,4.33333333 10.8333333,4.33333333 C12.0309248,4.33333333 13,3.36425808 13,2.16666667 C13,0.96907525 12.0309248,0 10.8333333,0 Z M19.5,0 C18.3024086,0 17.3333333,0.96907525 17.3333333,2.16666667 C17.3333333,3.36425808 18.3024086,4.33333333 19.5,4.33333333 C20.6975914,4.33333333 21.6666667,3.36425808 21.6666667,2.16666667 C21.6666667,0.96907525 20.6975914,0 19.5,0 Z" id="Shape"></path>
            </g>
        </g>
    </g>
</svg>