<?xml version="1.0" encoding="UTF-8"?>
<svg width="44px" height="44px" viewBox="0 0 44 44" version="1.1" xmlns="http://www.w3.org/2000/svg" xmlns:xlink="http://www.w3.org/1999/xlink">
    <title>web/rounded_like</title>
    <g id="Export" stroke="none" stroke-width="1" fill="none" fill-rule="evenodd">
        <g id="Export-Webplayer" transform="translate(-23, -19)">
            <g id="web/rounded_like" transform="translate(23, 19)">
                <circle id="Oval" fill="#003D6E" cx="22" cy="22" r="22"></circle>
                <g id="icons/ic_share" transform="translate(9.1667, 11)" fill="#F8F8F8">
                    <path d="M6.875,0 C3.08300758,0 -1.77635684e-15,3.11881533 -1.77635684e-15,6.875 C-1.77635684e-15,8.18554733 0.5944015,9.32063825 1.14583333,10.140625 C1.69726608,10.9606118 2.26302083,11.4869792 2.26302083,11.4869792 L12.1744792,21.4270833 L12.8333333,22.0859375 L13.4921875,21.4270833 L23.4036458,11.4869792 C23.4036458,11.4869792 25.6666667,9.49251325 25.6666667,6.875 C25.6666667,3.11881533 22.5836591,0 18.7916667,0 C15.6442055,0 13.6175132,1.8942055 12.8333333,2.69270833 C12.0491534,1.8942055 10.0224612,0 6.875,0 Z M6.875,1.83333333 C9.61425758,1.83333333 12.1458333,4.49739583 12.1458333,4.49739583 L12.8333333,5.27083333 L13.5208333,4.49739583 C13.5208333,4.49739583 16.0524091,1.83333333 18.7916667,1.83333333 C21.5810549,1.83333333 23.8333333,4.1214195 23.8333333,6.875 C23.8333333,8.28938825 22.1145833,10.1979167 22.1145833,10.1979167 L12.8333333,19.4791667 L3.55208333,10.1979167 C3.55208333,10.1979167 3.10807292,9.77180967 2.6640625,9.109375 C2.22005208,8.44694033 1.83333333,7.58398483 1.83333333,6.875 C1.83333333,4.1214195 4.08561175,1.83333333 6.875,1.83333333 Z" id="Shape"></path>
                </g>
            </g>
        </g>
    </g>
</svg>