<?xml version="1.0" encoding="UTF-8"?><svg version="1.1" width="21px" height="21px" viewBox="0 0 21.0 21.0" xmlns="http://www.w3.org/2000/svg" xmlns:xlink="http://www.w3.org/1999/xlink"><defs><clipPath id="i0"><path d="M412,0 L412,538 L0,538 L0,0 L412,0 Z"></path></clipPath><clipPath id="i1"><path d="M11.28125,0 L10.59375,1.5 C10.222656,2.28125 10,3.117188 10,4.03125 C10,7.355469 12.675781,10.03125 16,10.03125 C16.914063,10.03125 17.78125,9.839844 18.5625,9.46875 L20.03125,8.78125 L19.96875,10.40625 C19.777344,15.75 15.390625,20.03125 10,20.03125 C4.488281,20.03125 0,15.542969 0,10.03125 C0,4.640625 4.28125,0.253906 9.625,0.0625 L11.28125,0 Z M8.375,2.375 C4.757813,3.144531 2,6.179688 2,10.03125 C2,14.460938 5.570313,18.03125 10,18.03125 C13.859375,18.03125 16.925781,15.28125 17.6875,11.65625 C17.121094,11.785156 16.605469,12.03125 16,12.03125 C11.59375,12.03125 8,8.4375 8,4.03125 C8,3.4375 8.25,2.929688 8.375,2.375 Z"></path></clipPath></defs><g transform="translate(-286.0 -31.0)"><g clip-path="url(#i0)"><g transform="translate(281.0 26.0)"><g transform="translate(5.0 5.0)"><g clip-path="url(#i1)"><polygon points="0,0 20.03125,0 20.03125,20.03125 0,20.03125 0,0" stroke="none" fill="#009E90"></polygon></g></g></g></g></g></svg>