<?xml version="1.0" encoding="UTF-8"?>
<svg width="30px" height="30px" viewBox="0 0 30 30" version="1.1" xmlns="http://www.w3.org/2000/svg" xmlns:xlink="http://www.w3.org/1999/xlink">
    <title>web/ic_moon</title>
    <g id="Export" stroke="none" stroke-width="1" fill="none" fill-rule="evenodd">
        <g id="Export-Webplayer" transform="translate(-281, -26)" fill="#CF2508">
            <g id="web/ic_moon" transform="translate(286, 31)">
                <path d="M11.28125,0 L9.625,0.0625 C4.28125,0.253906 0,4.640625 0,10.03125 C0,15.542969 4.488281,20.03125 10,20.03125 C15.390625,20.03125 19.777344,15.75 19.96875,10.40625 L20.03125,8.78125 L18.5625,9.46875 C17.78125,9.839844 16.914063,10.03125 16,10.03125 C12.675781,10.03125 10,7.355469 10,4.03125 C10,3.117188 10.222656,2.28125 10.59375,1.5 L11.28125,0 Z M8.375,2.375 C8.25,2.929688 8,3.4375 8,4.03125 C8,8.4375 11.59375,12.03125 16,12.03125 C16.605469,12.03125 17.121094,11.785156 17.6875,11.65625 C16.925781,15.28125 13.859375,18.03125 10,18.03125 C5.570313,18.03125 2,14.460938 2,10.03125 C2,6.179688 4.757813,3.144531 8.375,2.375 Z" id="Shape"></path>
            </g>
        </g>
    </g>
</svg>