<?xml version="1.0" encoding="UTF-8"?>
<svg width="44px" height="44px" viewBox="0 0 44 44" version="1.1" xmlns="http://www.w3.org/2000/svg" xmlns:xlink="http://www.w3.org/1999/xlink">
    <title>web/rounded_share</title>
    <g id="Export" stroke="none" stroke-width="1" fill="none" fill-rule="evenodd">
        <g id="Export-Webplayer" transform="translate(-153, -19)">
            <g id="web/rounded_share" transform="translate(153, 19)">
                <circle id="Oval" fill="#3C3C3C" cx="22" cy="22" r="22"></circle>
                <g id="icons/ic_share" transform="translate(11, 11.9167)" fill="#F8F8F8">
                    <path d="M16.8795568,-1.77635684e-15 L15.5833333,1.29622396 L19.4039716,5.09895833 L10.5416667,5.09895833 C7.76233333,5.09895833 5.5,7.360375 5.5,10.140625 C5.5,12.920875 7.76233333,15.1822917 10.5416667,15.1822917 L11,15.1822917 L11,13.3489583 L10.5416667,13.3489583 C8.7725,13.3489583 7.33333333,11.9097917 7.33333333,10.140625 C7.33333333,8.37145833 8.7725,6.93229167 10.5416667,6.93229167 L19.4075521,6.93229167 L15.5904943,10.7493485 L16.8867188,12.0455729 L22.9166667,6.015625 L16.8795568,-1.77635684e-15 Z M0,0.515625 L0,20.6822917 L20.1666667,20.6822917 L20.1666667,11.515625 L18.3333333,13.3489583 L18.3333333,18.8489583 L1.83333333,18.8489583 L1.83333333,2.34895833 L11.7823897,2.34895833 L13.615723,0.515625 L0,0.515625 Z" id="Shape"></path>
                </g>
            </g>
        </g>
    </g>
</svg>