<?xml version="1.0" encoding="UTF-8"?><svg version="1.1" width="26px" height="26px" viewBox="0 0 26.0 26.0" xmlns="http://www.w3.org/2000/svg" xmlns:xlink="http://www.w3.org/1999/xlink"><defs><clipPath id="i0"><path d="M412,0 L412,538 L0,538 L0,0 L412,0 Z"></path></clipPath><clipPath id="i1"><path d="M14,21 L14,26 L12,26 L12,21 L14,21 Z M6.625,17.9375 L8.0625,19.375 L4.5,22.90625 L3.09375,21.5 L6.625,17.9375 Z M19.375,17.9375 L22.90625,21.5 L21.5,22.90625 L17.9375,19.375 L19.375,17.9375 Z M13,6 C16.855469,6 20,9.144531 20,13 C20,16.855469 16.855469,20 13,20 C9.144531,20 6,16.855469 6,13 C6,9.144531 9.144531,6 13,6 Z M13,8 C10.226563,8 8,10.226563 8,13 C8,15.773438 10.226563,18 13,18 C15.773438,18 18,15.773438 18,13 C18,10.226563 15.773438,8 13,8 Z M5,12 L5,14 L0,14 L0,12 L5,12 Z M26,12 L26,14 L21,14 L21,12 L26,12 Z M4.5,3.09375 L8.0625,6.625 L6.625,8.0625 L3.09375,4.5 L4.5,3.09375 Z M21.5,3.09375 L22.90625,4.5 L19.375,8.0625 L17.9375,6.625 L21.5,3.09375 Z M14,0 L14,5 L12,5 L12,0 L14,0 Z"></path></clipPath></defs><g transform="translate(-326.0 -28.0)"><g clip-path="url(#i0)"><g transform="translate(324.0 26.0)"><g transform="translate(2.0 2.0)"><g clip-path="url(#i1)"><polygon points="0,0 26,0 26,26 0,26 0,0" stroke="none" fill="#00F2DC"></polygon></g></g></g></g></g></svg>